<?xml version="1.0" standalone="no"?><!DOCTYPE svg PUBLIC "-//W3C//DTD SVG 1.1//EN" "http://www.w3.org/Graphics/SVG/1.1/DTD/svg11.dtd"><svg t="1593074072933" class="icon" viewBox="0 0 1024 1024" version="1.1" xmlns="http://www.w3.org/2000/svg" p-id="11004" xmlns:xlink="http://www.w3.org/1999/xlink" width="200" height="200"><defs><style type="text/css"></style></defs><path d="M514.6112 7.7568c-278.42048 0-504.17152 225.75104-504.2176 504.2176 0 278.56384 225.75104 504.2688 504.2176 504.2688 278.51776 0 504.2688-225.75104 504.2688-504.2688 0-278.47168-225.69984-504.2176-504.2688-504.2176z m222.99136 497.64864c1.70496 8.06912 2.55488 17.23904 2.55488 27.56096 0 12.63104-0.84992 23.25504-2.55488 31.87712h-165.21728v75.76576h165.21728c1.70496 8.01792 2.55488 17.18784 2.55488 27.51488 0 12.68224-0.84992 23.25504-2.55488 31.872h-165.21728v135.10144c-6.9632 1.10592-14.08 2.00704-21.55008 2.60608a276.33152 276.33152 0 0 1-44.74368 0 256.00512 256.00512 0 0 1-21.55008-2.60608v-135.10144H326.1952c-2.304-6.91712-3.456-16.63488-3.456-29.26592 0-5.21216 0.30208-10.32192 0.84992-15.53408 0.59904-5.16096 1.44896-10.01984 2.60608-14.58688h158.35648V564.8384H326.1952c-2.304-6.91712-3.456-16.63488-3.456-29.26592 0-5.16096 0.30208-10.32704 0.84992-15.53408 0.59904-5.16608 1.44896-10.02496 2.6112-14.63296h123.91936L291.76832 226.5856a270.97088 270.97088 0 0 1 24.50432-2.55488 379.18208 379.18208 0 0 1 25.45664-0.90112c8.01792 0 16.33792 0.30208 24.96 0.85504s16.3328 1.40288 23.24992 2.55488l141.11744 259.92704 138.60352-259.92704a274.83136 274.83136 0 0 1 22.79936-2.55488 333.48608 333.48608 0 0 1 47.70304 0c8.064 0.54784 15.53408 1.40288 22.4 2.55488L606.8224 505.35424h130.7904l-0.01024 0.0512z" p-id="11005"></path></svg>