<?xml version="1.0" standalone="no"?><!DOCTYPE svg PUBLIC "-//W3C//DTD SVG 1.1//EN" "http://www.w3.org/Graphics/SVG/1.1/DTD/svg11.dtd"><svg t="1593074809244" class="icon" viewBox="0 0 1024 1024" version="1.1" xmlns="http://www.w3.org/2000/svg" p-id="3961" xmlns:xlink="http://www.w3.org/1999/xlink" width="200" height="200"><defs><style type="text/css"></style></defs><path d="M514.901333 487.936V90.624A22.186667 22.186667 0 0 1 539.818667 68.266667a491.349333 491.349333 0 0 1 416.768 417.109333 22.016 22.016 0 0 1-22.186667 24.746667H537.258667a22.357333 22.357333 0 0 1-22.357334-22.186667zM887.466667 581.802667H477.866667a37.546667 37.546667 0 0 1-37.546667-37.376V160.256a22.016 22.016 0 0 0-24.917333-22.186667 411.306667 411.306667 0 1 0 472.064 443.733334z m0 0" p-id="3962"></path></svg>